# xmcd
#
# Track frame offsets:
#       150
#       15445
#       29907
#       44989
#       55680
#       69912
#       86512
#       106200
#       122140
#       134497
#       148125
#       160909
#
# Disc length: 2275 seconds
#
# Revision: 1
# Processed by: cddbd v1.5.1PL0 Copyright (c) Steve Scherf et al.
# Submitted via: MusiCat 1.1
#
DISCID=ac08e10c
DTITLE=Vadico - Vadico
DYEAR=1900
DGENRE=
TTITLE0=Feitio de oração
TTITLE1=Prece
TTITLE2=Négo
TTITLE3=Choro em fá menor
TTITLE4=Prá que mentir
TTITLE5=Sempre a espera
TTITLE6=Feitiço da vila
TTITLE7=Julgamento
TTITLE8=Chopp
TTITLE9=Guanabara
TTITLE10=Só pode ser você
TTITLE11=Conversa de botequim
EXTD=\n\n
EXTT0=
EXTT1=
EXTT2=
EXTT3=
EXTT4=
EXTT5=
EXTT6=
EXTT7=
EXTT8=
EXTT9=
EXTT10=
EXTT11=
PLAYORDER=
